<mxfile host="app.diagrams.net" modified="2023-10-31T08:55:25.964Z" agent="Mozilla/5.0 (Windows NT 10.0; Win64; x64) AppleWebKit/537.36 (KHTML, like Gecko) Chrome/116.0.0.0 Safari/537.36 OPR/102.0.0.0 (Edition Yx GX)" etag="X2XTVd4hOmQOssS75x2I" version="22.0.8" type="device">
  <diagram name="Страница — 1" id="oUTu7KVOvL7xVV30Jyb4">
    <mxGraphModel dx="1161" dy="1096" grid="0" gridSize="10" guides="1" tooltips="1" connect="1" arrows="1" fold="1" page="0" pageScale="1" pageWidth="827" pageHeight="1169" math="0" shadow="0">
      <root>
        <mxCell id="0" />
        <mxCell id="1" parent="0" />
        <mxCell id="CULK5K6YKy9VZt6dh16J-146" value="" style="rounded=0;whiteSpace=wrap;html=1;dashed=1;fillColor=none;" vertex="1" parent="1">
          <mxGeometry x="200" y="-60" width="450" height="850" as="geometry" />
        </mxCell>
        <mxCell id="CULK5K6YKy9VZt6dh16J-1" value="Клиент" style="shape=umlActor;verticalLabelPosition=bottom;verticalAlign=top;html=1;outlineConnect=0;" vertex="1" parent="1">
          <mxGeometry x="120" y="360" width="40" height="80" as="geometry" />
        </mxCell>
        <mxCell id="CULK5K6YKy9VZt6dh16J-42" style="rounded=0;orthogonalLoop=1;jettySize=auto;html=1;" edge="1" parent="1" source="CULK5K6YKy9VZt6dh16J-1" target="CULK5K6YKy9VZt6dh16J-2">
          <mxGeometry relative="1" as="geometry">
            <mxPoint x="120" y="210" as="targetPoint" />
          </mxGeometry>
        </mxCell>
        <mxCell id="CULK5K6YKy9VZt6dh16J-2" value="Просмотр статей" style="ellipse;whiteSpace=wrap;html=1;" vertex="1" parent="1">
          <mxGeometry x="280" y="120" width="110" height="50" as="geometry" />
        </mxCell>
        <mxCell id="CULK5K6YKy9VZt6dh16J-4" style="rounded=0;orthogonalLoop=1;jettySize=auto;html=1;" edge="1" parent="1" source="CULK5K6YKy9VZt6dh16J-3" target="CULK5K6YKy9VZt6dh16J-2">
          <mxGeometry relative="1" as="geometry" />
        </mxCell>
        <mxCell id="CULK5K6YKy9VZt6dh16J-5" value="&quot;extend&quot;" style="edgeLabel;html=1;align=center;verticalAlign=middle;resizable=0;points=[];" vertex="1" connectable="0" parent="CULK5K6YKy9VZt6dh16J-4">
          <mxGeometry x="-0.0592" y="-2" relative="1" as="geometry">
            <mxPoint as="offset" />
          </mxGeometry>
        </mxCell>
        <mxCell id="CULK5K6YKy9VZt6dh16J-3" value="Фильтрация &lt;br&gt;статей" style="ellipse;whiteSpace=wrap;html=1;" vertex="1" parent="1">
          <mxGeometry x="320" y="30" width="106" height="40" as="geometry" />
        </mxCell>
        <mxCell id="CULK5K6YKy9VZt6dh16J-6" value="Добавление&lt;br&gt;статей" style="ellipse;whiteSpace=wrap;html=1;" vertex="1" parent="1">
          <mxGeometry x="450" y="50" width="106" height="40" as="geometry" />
        </mxCell>
        <mxCell id="CULK5K6YKy9VZt6dh16J-7" value="Удаление статей" style="ellipse;whiteSpace=wrap;html=1;" vertex="1" parent="1">
          <mxGeometry x="474" y="90" width="106" height="40" as="geometry" />
        </mxCell>
        <mxCell id="CULK5K6YKy9VZt6dh16J-8" value="Редактирование&lt;br&gt;статей" style="ellipse;whiteSpace=wrap;html=1;" vertex="1" parent="1">
          <mxGeometry x="470" y="130" width="110" height="50" as="geometry" />
        </mxCell>
        <mxCell id="CULK5K6YKy9VZt6dh16J-10" style="rounded=0;orthogonalLoop=1;jettySize=auto;html=1;" edge="1" parent="1" source="CULK5K6YKy9VZt6dh16J-2" target="CULK5K6YKy9VZt6dh16J-6">
          <mxGeometry relative="1" as="geometry">
            <mxPoint x="375" y="80" as="sourcePoint" />
            <mxPoint x="355" y="130" as="targetPoint" />
          </mxGeometry>
        </mxCell>
        <mxCell id="CULK5K6YKy9VZt6dh16J-11" value="&quot;include&quot;" style="edgeLabel;html=1;align=center;verticalAlign=middle;resizable=0;points=[];" vertex="1" connectable="0" parent="CULK5K6YKy9VZt6dh16J-10">
          <mxGeometry x="-0.0592" y="-2" relative="1" as="geometry">
            <mxPoint as="offset" />
          </mxGeometry>
        </mxCell>
        <mxCell id="CULK5K6YKy9VZt6dh16J-13" style="rounded=0;orthogonalLoop=1;jettySize=auto;html=1;" edge="1" parent="1" source="CULK5K6YKy9VZt6dh16J-2" target="CULK5K6YKy9VZt6dh16J-7">
          <mxGeometry relative="1" as="geometry">
            <mxPoint x="384" y="137" as="sourcePoint" />
            <mxPoint x="455" y="105" as="targetPoint" />
          </mxGeometry>
        </mxCell>
        <mxCell id="CULK5K6YKy9VZt6dh16J-14" value="&quot;include&quot;" style="edgeLabel;html=1;align=center;verticalAlign=middle;resizable=0;points=[];" vertex="1" connectable="0" parent="CULK5K6YKy9VZt6dh16J-13">
          <mxGeometry x="-0.0592" y="-2" relative="1" as="geometry">
            <mxPoint as="offset" />
          </mxGeometry>
        </mxCell>
        <mxCell id="CULK5K6YKy9VZt6dh16J-15" style="rounded=0;orthogonalLoop=1;jettySize=auto;html=1;" edge="1" parent="1" source="CULK5K6YKy9VZt6dh16J-2" target="CULK5K6YKy9VZt6dh16J-8">
          <mxGeometry relative="1" as="geometry">
            <mxPoint x="400" y="155" as="sourcePoint" />
            <mxPoint x="436" y="155" as="targetPoint" />
          </mxGeometry>
        </mxCell>
        <mxCell id="CULK5K6YKy9VZt6dh16J-16" value="&quot;include&quot;" style="edgeLabel;html=1;align=center;verticalAlign=middle;resizable=0;points=[];" vertex="1" connectable="0" parent="CULK5K6YKy9VZt6dh16J-15">
          <mxGeometry x="-0.0592" y="-2" relative="1" as="geometry">
            <mxPoint as="offset" />
          </mxGeometry>
        </mxCell>
        <mxCell id="CULK5K6YKy9VZt6dh16J-17" value="Фильтрация по категориям" style="ellipse;whiteSpace=wrap;html=1;" vertex="1" parent="1">
          <mxGeometry x="390" y="-50" width="106" height="40" as="geometry" />
        </mxCell>
        <mxCell id="CULK5K6YKy9VZt6dh16J-18" value="Фильтрация по языка программирвоания" style="ellipse;whiteSpace=wrap;html=1;" vertex="1" parent="1">
          <mxGeometry x="490" y="-20" width="134" height="60" as="geometry" />
        </mxCell>
        <mxCell id="CULK5K6YKy9VZt6dh16J-19" style="rounded=0;orthogonalLoop=1;jettySize=auto;html=1;" edge="1" parent="1" source="CULK5K6YKy9VZt6dh16J-3" target="CULK5K6YKy9VZt6dh16J-18">
          <mxGeometry relative="1" as="geometry">
            <mxPoint x="384" y="137" as="sourcePoint" />
            <mxPoint x="455" y="105" as="targetPoint" />
          </mxGeometry>
        </mxCell>
        <mxCell id="CULK5K6YKy9VZt6dh16J-20" value="&quot;include&quot;" style="edgeLabel;html=1;align=center;verticalAlign=middle;resizable=0;points=[];" vertex="1" connectable="0" parent="CULK5K6YKy9VZt6dh16J-19">
          <mxGeometry x="-0.0592" y="-2" relative="1" as="geometry">
            <mxPoint as="offset" />
          </mxGeometry>
        </mxCell>
        <mxCell id="CULK5K6YKy9VZt6dh16J-21" style="rounded=0;orthogonalLoop=1;jettySize=auto;html=1;" edge="1" parent="1" source="CULK5K6YKy9VZt6dh16J-3" target="CULK5K6YKy9VZt6dh16J-17">
          <mxGeometry relative="1" as="geometry">
            <mxPoint x="407" y="42" as="sourcePoint" />
            <mxPoint x="455" y="6" as="targetPoint" />
          </mxGeometry>
        </mxCell>
        <mxCell id="CULK5K6YKy9VZt6dh16J-22" value="&quot;include&quot;" style="edgeLabel;html=1;align=center;verticalAlign=middle;resizable=0;points=[];" vertex="1" connectable="0" parent="CULK5K6YKy9VZt6dh16J-21">
          <mxGeometry x="-0.0592" y="-2" relative="1" as="geometry">
            <mxPoint as="offset" />
          </mxGeometry>
        </mxCell>
        <mxCell id="CULK5K6YKy9VZt6dh16J-23" value="Просмотр курсов" style="ellipse;whiteSpace=wrap;html=1;" vertex="1" parent="1">
          <mxGeometry x="286" y="300" width="110" height="50" as="geometry" />
        </mxCell>
        <mxCell id="CULK5K6YKy9VZt6dh16J-24" style="rounded=0;orthogonalLoop=1;jettySize=auto;html=1;" edge="1" parent="1" source="CULK5K6YKy9VZt6dh16J-26" target="CULK5K6YKy9VZt6dh16J-23">
          <mxGeometry relative="1" as="geometry" />
        </mxCell>
        <mxCell id="CULK5K6YKy9VZt6dh16J-25" value="&quot;extend&quot;" style="edgeLabel;html=1;align=center;verticalAlign=middle;resizable=0;points=[];" vertex="1" connectable="0" parent="CULK5K6YKy9VZt6dh16J-24">
          <mxGeometry x="-0.0592" y="-2" relative="1" as="geometry">
            <mxPoint as="offset" />
          </mxGeometry>
        </mxCell>
        <mxCell id="CULK5K6YKy9VZt6dh16J-26" value="Фильтрация &lt;br&gt;курсов" style="ellipse;whiteSpace=wrap;html=1;" vertex="1" parent="1">
          <mxGeometry x="320" y="230" width="106" height="40" as="geometry" />
        </mxCell>
        <mxCell id="CULK5K6YKy9VZt6dh16J-27" value="Добавление&lt;br&gt;курсов" style="ellipse;whiteSpace=wrap;html=1;" vertex="1" parent="1">
          <mxGeometry x="450" y="250" width="106" height="40" as="geometry" />
        </mxCell>
        <mxCell id="CULK5K6YKy9VZt6dh16J-28" value="Удаление курсов" style="ellipse;whiteSpace=wrap;html=1;" vertex="1" parent="1">
          <mxGeometry x="484" y="290" width="106" height="40" as="geometry" />
        </mxCell>
        <mxCell id="CULK5K6YKy9VZt6dh16J-29" value="Редактирование&lt;br&gt;курсов" style="ellipse;whiteSpace=wrap;html=1;" vertex="1" parent="1">
          <mxGeometry x="480" y="330" width="110" height="50" as="geometry" />
        </mxCell>
        <mxCell id="CULK5K6YKy9VZt6dh16J-30" style="rounded=0;orthogonalLoop=1;jettySize=auto;html=1;" edge="1" parent="1" source="CULK5K6YKy9VZt6dh16J-23" target="CULK5K6YKy9VZt6dh16J-27">
          <mxGeometry relative="1" as="geometry">
            <mxPoint x="385" y="290" as="sourcePoint" />
            <mxPoint x="365" y="340" as="targetPoint" />
          </mxGeometry>
        </mxCell>
        <mxCell id="CULK5K6YKy9VZt6dh16J-31" value="&quot;include&quot;" style="edgeLabel;html=1;align=center;verticalAlign=middle;resizable=0;points=[];" vertex="1" connectable="0" parent="CULK5K6YKy9VZt6dh16J-30">
          <mxGeometry x="-0.0592" y="-2" relative="1" as="geometry">
            <mxPoint as="offset" />
          </mxGeometry>
        </mxCell>
        <mxCell id="CULK5K6YKy9VZt6dh16J-32" style="rounded=0;orthogonalLoop=1;jettySize=auto;html=1;" edge="1" parent="1" source="CULK5K6YKy9VZt6dh16J-23" target="CULK5K6YKy9VZt6dh16J-28">
          <mxGeometry relative="1" as="geometry">
            <mxPoint x="394" y="347" as="sourcePoint" />
            <mxPoint x="465" y="315" as="targetPoint" />
          </mxGeometry>
        </mxCell>
        <mxCell id="CULK5K6YKy9VZt6dh16J-33" value="&quot;include&quot;" style="edgeLabel;html=1;align=center;verticalAlign=middle;resizable=0;points=[];" vertex="1" connectable="0" parent="CULK5K6YKy9VZt6dh16J-32">
          <mxGeometry x="-0.0592" y="-2" relative="1" as="geometry">
            <mxPoint as="offset" />
          </mxGeometry>
        </mxCell>
        <mxCell id="CULK5K6YKy9VZt6dh16J-34" style="rounded=0;orthogonalLoop=1;jettySize=auto;html=1;" edge="1" parent="1" source="CULK5K6YKy9VZt6dh16J-23" target="CULK5K6YKy9VZt6dh16J-29">
          <mxGeometry relative="1" as="geometry">
            <mxPoint x="410" y="365" as="sourcePoint" />
            <mxPoint x="446" y="365" as="targetPoint" />
          </mxGeometry>
        </mxCell>
        <mxCell id="CULK5K6YKy9VZt6dh16J-35" value="&quot;include&quot;" style="edgeLabel;html=1;align=center;verticalAlign=middle;resizable=0;points=[];" vertex="1" connectable="0" parent="CULK5K6YKy9VZt6dh16J-34">
          <mxGeometry x="-0.0592" y="-2" relative="1" as="geometry">
            <mxPoint as="offset" />
          </mxGeometry>
        </mxCell>
        <mxCell id="CULK5K6YKy9VZt6dh16J-36" value="Фильтрация по категориям" style="ellipse;whiteSpace=wrap;html=1;" vertex="1" parent="1">
          <mxGeometry x="384" y="170" width="106" height="40" as="geometry" />
        </mxCell>
        <mxCell id="CULK5K6YKy9VZt6dh16J-37" value="Фильтрация по языкам программирования" style="ellipse;whiteSpace=wrap;html=1;" vertex="1" parent="1">
          <mxGeometry x="490" y="190" width="134" height="60" as="geometry" />
        </mxCell>
        <mxCell id="CULK5K6YKy9VZt6dh16J-38" style="rounded=0;orthogonalLoop=1;jettySize=auto;html=1;" edge="1" parent="1" source="CULK5K6YKy9VZt6dh16J-26" target="CULK5K6YKy9VZt6dh16J-37">
          <mxGeometry relative="1" as="geometry">
            <mxPoint x="394" y="347" as="sourcePoint" />
            <mxPoint x="465" y="315" as="targetPoint" />
          </mxGeometry>
        </mxCell>
        <mxCell id="CULK5K6YKy9VZt6dh16J-39" value="&quot;include&quot;" style="edgeLabel;html=1;align=center;verticalAlign=middle;resizable=0;points=[];" vertex="1" connectable="0" parent="CULK5K6YKy9VZt6dh16J-38">
          <mxGeometry x="-0.0592" y="-2" relative="1" as="geometry">
            <mxPoint as="offset" />
          </mxGeometry>
        </mxCell>
        <mxCell id="CULK5K6YKy9VZt6dh16J-40" style="rounded=0;orthogonalLoop=1;jettySize=auto;html=1;" edge="1" parent="1" source="CULK5K6YKy9VZt6dh16J-26" target="CULK5K6YKy9VZt6dh16J-36">
          <mxGeometry relative="1" as="geometry">
            <mxPoint x="417" y="252" as="sourcePoint" />
            <mxPoint x="465" y="216" as="targetPoint" />
          </mxGeometry>
        </mxCell>
        <mxCell id="CULK5K6YKy9VZt6dh16J-41" value="&quot;include&quot;" style="edgeLabel;html=1;align=center;verticalAlign=middle;resizable=0;points=[];" vertex="1" connectable="0" parent="CULK5K6YKy9VZt6dh16J-40">
          <mxGeometry x="-0.0592" y="-2" relative="1" as="geometry">
            <mxPoint as="offset" />
          </mxGeometry>
        </mxCell>
        <mxCell id="CULK5K6YKy9VZt6dh16J-43" style="rounded=0;orthogonalLoop=1;jettySize=auto;html=1;" edge="1" parent="1" source="CULK5K6YKy9VZt6dh16J-1" target="CULK5K6YKy9VZt6dh16J-23">
          <mxGeometry relative="1" as="geometry">
            <mxPoint x="90" y="350" as="sourcePoint" />
            <mxPoint x="262" y="178" as="targetPoint" />
          </mxGeometry>
        </mxCell>
        <mxCell id="CULK5K6YKy9VZt6dh16J-44" value="Просмотр задач" style="ellipse;whiteSpace=wrap;html=1;" vertex="1" parent="1">
          <mxGeometry x="290" y="585" width="110" height="50" as="geometry" />
        </mxCell>
        <mxCell id="CULK5K6YKy9VZt6dh16J-45" style="rounded=0;orthogonalLoop=1;jettySize=auto;html=1;" edge="1" parent="1" source="CULK5K6YKy9VZt6dh16J-47" target="CULK5K6YKy9VZt6dh16J-44">
          <mxGeometry relative="1" as="geometry" />
        </mxCell>
        <mxCell id="CULK5K6YKy9VZt6dh16J-46" value="&quot;extend&quot;" style="edgeLabel;html=1;align=center;verticalAlign=middle;resizable=0;points=[];" vertex="1" connectable="0" parent="CULK5K6YKy9VZt6dh16J-45">
          <mxGeometry x="-0.0592" y="-2" relative="1" as="geometry">
            <mxPoint as="offset" />
          </mxGeometry>
        </mxCell>
        <mxCell id="CULK5K6YKy9VZt6dh16J-47" value="Фильтрация &lt;br&gt;задач" style="ellipse;whiteSpace=wrap;html=1;" vertex="1" parent="1">
          <mxGeometry x="344" y="660" width="106" height="40" as="geometry" />
        </mxCell>
        <mxCell id="CULK5K6YKy9VZt6dh16J-48" value="Добавление&lt;br&gt;задач" style="ellipse;whiteSpace=wrap;html=1;" vertex="1" parent="1">
          <mxGeometry x="468" y="530" width="106" height="40" as="geometry" />
        </mxCell>
        <mxCell id="CULK5K6YKy9VZt6dh16J-49" value="Удаление задач" style="ellipse;whiteSpace=wrap;html=1;" vertex="1" parent="1">
          <mxGeometry x="474" y="570" width="106" height="40" as="geometry" />
        </mxCell>
        <mxCell id="CULK5K6YKy9VZt6dh16J-50" value="Редактирование&lt;br&gt;задач" style="ellipse;whiteSpace=wrap;html=1;" vertex="1" parent="1">
          <mxGeometry x="470" y="620" width="110" height="50" as="geometry" />
        </mxCell>
        <mxCell id="CULK5K6YKy9VZt6dh16J-51" style="rounded=0;orthogonalLoop=1;jettySize=auto;html=1;" edge="1" parent="1" source="CULK5K6YKy9VZt6dh16J-44" target="CULK5K6YKy9VZt6dh16J-48">
          <mxGeometry relative="1" as="geometry">
            <mxPoint x="408" y="550" as="sourcePoint" />
            <mxPoint x="388" y="600" as="targetPoint" />
          </mxGeometry>
        </mxCell>
        <mxCell id="CULK5K6YKy9VZt6dh16J-52" value="&quot;include&quot;" style="edgeLabel;html=1;align=center;verticalAlign=middle;resizable=0;points=[];" vertex="1" connectable="0" parent="CULK5K6YKy9VZt6dh16J-51">
          <mxGeometry x="-0.0592" y="-2" relative="1" as="geometry">
            <mxPoint as="offset" />
          </mxGeometry>
        </mxCell>
        <mxCell id="CULK5K6YKy9VZt6dh16J-53" style="rounded=0;orthogonalLoop=1;jettySize=auto;html=1;" edge="1" parent="1" source="CULK5K6YKy9VZt6dh16J-44" target="CULK5K6YKy9VZt6dh16J-49">
          <mxGeometry relative="1" as="geometry">
            <mxPoint x="417" y="607" as="sourcePoint" />
            <mxPoint x="488" y="575" as="targetPoint" />
          </mxGeometry>
        </mxCell>
        <mxCell id="CULK5K6YKy9VZt6dh16J-54" value="&quot;include&quot;" style="edgeLabel;html=1;align=center;verticalAlign=middle;resizable=0;points=[];" vertex="1" connectable="0" parent="CULK5K6YKy9VZt6dh16J-53">
          <mxGeometry x="-0.0592" y="-2" relative="1" as="geometry">
            <mxPoint as="offset" />
          </mxGeometry>
        </mxCell>
        <mxCell id="CULK5K6YKy9VZt6dh16J-55" style="rounded=0;orthogonalLoop=1;jettySize=auto;html=1;" edge="1" parent="1" source="CULK5K6YKy9VZt6dh16J-44" target="CULK5K6YKy9VZt6dh16J-50">
          <mxGeometry relative="1" as="geometry">
            <mxPoint x="433" y="625" as="sourcePoint" />
            <mxPoint x="469" y="625" as="targetPoint" />
          </mxGeometry>
        </mxCell>
        <mxCell id="CULK5K6YKy9VZt6dh16J-56" value="&quot;include&quot;" style="edgeLabel;html=1;align=center;verticalAlign=middle;resizable=0;points=[];" vertex="1" connectable="0" parent="CULK5K6YKy9VZt6dh16J-55">
          <mxGeometry x="-0.0592" y="-2" relative="1" as="geometry">
            <mxPoint as="offset" />
          </mxGeometry>
        </mxCell>
        <mxCell id="CULK5K6YKy9VZt6dh16J-57" value="Фильтрация по категориям" style="ellipse;whiteSpace=wrap;html=1;" vertex="1" parent="1">
          <mxGeometry x="280" y="730" width="106" height="40" as="geometry" />
        </mxCell>
        <mxCell id="CULK5K6YKy9VZt6dh16J-58" value="Фильтрация по языкам программирования" style="ellipse;whiteSpace=wrap;html=1;" vertex="1" parent="1">
          <mxGeometry x="450" y="720" width="134" height="60" as="geometry" />
        </mxCell>
        <mxCell id="CULK5K6YKy9VZt6dh16J-59" style="rounded=0;orthogonalLoop=1;jettySize=auto;html=1;" edge="1" parent="1" source="CULK5K6YKy9VZt6dh16J-47" target="CULK5K6YKy9VZt6dh16J-58">
          <mxGeometry relative="1" as="geometry">
            <mxPoint x="420" y="588.48" as="sourcePoint" />
            <mxPoint x="491" y="556.48" as="targetPoint" />
          </mxGeometry>
        </mxCell>
        <mxCell id="CULK5K6YKy9VZt6dh16J-60" value="&quot;include&quot;" style="edgeLabel;html=1;align=center;verticalAlign=middle;resizable=0;points=[];" vertex="1" connectable="0" parent="CULK5K6YKy9VZt6dh16J-59">
          <mxGeometry x="-0.0592" y="-2" relative="1" as="geometry">
            <mxPoint as="offset" />
          </mxGeometry>
        </mxCell>
        <mxCell id="CULK5K6YKy9VZt6dh16J-61" style="rounded=0;orthogonalLoop=1;jettySize=auto;html=1;" edge="1" parent="1" source="CULK5K6YKy9VZt6dh16J-47" target="CULK5K6YKy9VZt6dh16J-57">
          <mxGeometry relative="1" as="geometry">
            <mxPoint x="443" y="493.48" as="sourcePoint" />
            <mxPoint x="491" y="457.48" as="targetPoint" />
          </mxGeometry>
        </mxCell>
        <mxCell id="CULK5K6YKy9VZt6dh16J-62" value="&quot;include&quot;" style="edgeLabel;html=1;align=center;verticalAlign=middle;resizable=0;points=[];" vertex="1" connectable="0" parent="CULK5K6YKy9VZt6dh16J-61">
          <mxGeometry x="-0.0592" y="-2" relative="1" as="geometry">
            <mxPoint as="offset" />
          </mxGeometry>
        </mxCell>
        <mxCell id="CULK5K6YKy9VZt6dh16J-63" style="rounded=0;orthogonalLoop=1;jettySize=auto;html=1;exitX=1;exitY=1;exitDx=0;exitDy=0;exitPerimeter=0;" edge="1" parent="1" source="CULK5K6YKy9VZt6dh16J-1" target="CULK5K6YKy9VZt6dh16J-44">
          <mxGeometry relative="1" as="geometry">
            <mxPoint x="230" y="490" as="sourcePoint" />
            <mxPoint x="170" y="510" as="targetPoint" />
          </mxGeometry>
        </mxCell>
        <mxCell id="CULK5K6YKy9VZt6dh16J-64" value="Регистрация" style="ellipse;whiteSpace=wrap;html=1;" vertex="1" parent="1">
          <mxGeometry x="310" y="440" width="110" height="50" as="geometry" />
        </mxCell>
        <mxCell id="CULK5K6YKy9VZt6dh16J-65" style="rounded=0;orthogonalLoop=1;jettySize=auto;html=1;" edge="1" parent="1" source="CULK5K6YKy9VZt6dh16J-1" target="CULK5K6YKy9VZt6dh16J-64">
          <mxGeometry relative="1" as="geometry">
            <mxPoint x="170" y="404" as="sourcePoint" />
            <mxPoint x="250" y="379" as="targetPoint" />
          </mxGeometry>
        </mxCell>
        <mxCell id="CULK5K6YKy9VZt6dh16J-66" value="Авторизация" style="ellipse;whiteSpace=wrap;html=1;" vertex="1" parent="1">
          <mxGeometry x="310" y="510" width="110" height="50" as="geometry" />
        </mxCell>
        <mxCell id="CULK5K6YKy9VZt6dh16J-67" style="rounded=0;orthogonalLoop=1;jettySize=auto;html=1;" edge="1" parent="1" source="CULK5K6YKy9VZt6dh16J-1" target="CULK5K6YKy9VZt6dh16J-66">
          <mxGeometry relative="1" as="geometry">
            <mxPoint x="170" y="411" as="sourcePoint" />
            <mxPoint x="530" y="432" as="targetPoint" />
          </mxGeometry>
        </mxCell>
        <mxCell id="CULK5K6YKy9VZt6dh16J-69" style="rounded=0;orthogonalLoop=1;jettySize=auto;html=1;endArrow=classic;endFill=1;" edge="1" parent="1" source="CULK5K6YKy9VZt6dh16J-1" target="CULK5K6YKy9VZt6dh16J-68">
          <mxGeometry relative="1" as="geometry">
            <mxPoint x="180" y="395" as="targetPoint" />
          </mxGeometry>
        </mxCell>
        <mxCell id="CULK5K6YKy9VZt6dh16J-68" value="Просмотр профиля" style="ellipse;whiteSpace=wrap;html=1;" vertex="1" parent="1">
          <mxGeometry x="318" y="375" width="110" height="50" as="geometry" />
        </mxCell>
        <mxCell id="CULK5K6YKy9VZt6dh16J-70" value="Редактирование&lt;br&gt;профиля" style="ellipse;whiteSpace=wrap;html=1;" vertex="1" parent="1">
          <mxGeometry x="450" y="450" width="110" height="50" as="geometry" />
        </mxCell>
        <mxCell id="CULK5K6YKy9VZt6dh16J-76" style="rounded=0;orthogonalLoop=1;jettySize=auto;html=1;" edge="1" parent="1" source="CULK5K6YKy9VZt6dh16J-70" target="CULK5K6YKy9VZt6dh16J-68">
          <mxGeometry relative="1" as="geometry">
            <mxPoint x="375" y="280" as="sourcePoint" />
            <mxPoint x="361" y="310" as="targetPoint" />
          </mxGeometry>
        </mxCell>
        <mxCell id="CULK5K6YKy9VZt6dh16J-77" value="&quot;extend&quot;" style="edgeLabel;html=1;align=center;verticalAlign=middle;resizable=0;points=[];" vertex="1" connectable="0" parent="CULK5K6YKy9VZt6dh16J-76">
          <mxGeometry x="-0.0592" y="-2" relative="1" as="geometry">
            <mxPoint as="offset" />
          </mxGeometry>
        </mxCell>
        <mxCell id="CULK5K6YKy9VZt6dh16J-102" style="rounded=0;orthogonalLoop=1;jettySize=auto;html=1;" edge="1" parent="1" source="CULK5K6YKy9VZt6dh16J-78" target="CULK5K6YKy9VZt6dh16J-100">
          <mxGeometry relative="1" as="geometry">
            <mxPoint x="860" y="340" as="targetPoint" />
          </mxGeometry>
        </mxCell>
        <mxCell id="CULK5K6YKy9VZt6dh16J-78" value="Клиент" style="shape=umlActor;verticalLabelPosition=bottom;verticalAlign=top;html=1;outlineConnect=0;" vertex="1" parent="1">
          <mxGeometry x="790" y="280" width="40" height="80" as="geometry" />
        </mxCell>
        <mxCell id="CULK5K6YKy9VZt6dh16J-101" style="rounded=0;orthogonalLoop=1;jettySize=auto;html=1;" edge="1" parent="1" source="CULK5K6YKy9VZt6dh16J-78" target="CULK5K6YKy9VZt6dh16J-79">
          <mxGeometry relative="1" as="geometry">
            <mxPoint x="850" y="250" as="targetPoint" />
          </mxGeometry>
        </mxCell>
        <mxCell id="CULK5K6YKy9VZt6dh16J-79" value="Просмотр проекта" style="ellipse;whiteSpace=wrap;html=1;" vertex="1" parent="1">
          <mxGeometry x="900" y="170" width="110" height="50" as="geometry" />
        </mxCell>
        <mxCell id="CULK5K6YKy9VZt6dh16J-83" value="Добавление&lt;br&gt;проекта" style="ellipse;whiteSpace=wrap;html=1;" vertex="1" parent="1">
          <mxGeometry x="1070" y="90" width="106" height="40" as="geometry" />
        </mxCell>
        <mxCell id="CULK5K6YKy9VZt6dh16J-84" value="Удаление проекта" style="ellipse;whiteSpace=wrap;html=1;" vertex="1" parent="1">
          <mxGeometry x="1094" y="140" width="106" height="40" as="geometry" />
        </mxCell>
        <mxCell id="CULK5K6YKy9VZt6dh16J-85" value="Редактирование&lt;br&gt;проекта" style="ellipse;whiteSpace=wrap;html=1;" vertex="1" parent="1">
          <mxGeometry x="1090" y="190" width="110" height="50" as="geometry" />
        </mxCell>
        <mxCell id="CULK5K6YKy9VZt6dh16J-86" style="rounded=0;orthogonalLoop=1;jettySize=auto;html=1;" edge="1" parent="1" source="CULK5K6YKy9VZt6dh16J-79" target="CULK5K6YKy9VZt6dh16J-83">
          <mxGeometry relative="1" as="geometry">
            <mxPoint x="995" y="130" as="sourcePoint" />
            <mxPoint x="975" y="180" as="targetPoint" />
          </mxGeometry>
        </mxCell>
        <mxCell id="CULK5K6YKy9VZt6dh16J-87" value="&quot;include&quot;" style="edgeLabel;html=1;align=center;verticalAlign=middle;resizable=0;points=[];" vertex="1" connectable="0" parent="CULK5K6YKy9VZt6dh16J-86">
          <mxGeometry x="-0.0592" y="-2" relative="1" as="geometry">
            <mxPoint as="offset" />
          </mxGeometry>
        </mxCell>
        <mxCell id="CULK5K6YKy9VZt6dh16J-88" style="rounded=0;orthogonalLoop=1;jettySize=auto;html=1;" edge="1" parent="1" source="CULK5K6YKy9VZt6dh16J-79" target="CULK5K6YKy9VZt6dh16J-84">
          <mxGeometry relative="1" as="geometry">
            <mxPoint x="1004" y="187" as="sourcePoint" />
            <mxPoint x="1075" y="155" as="targetPoint" />
          </mxGeometry>
        </mxCell>
        <mxCell id="CULK5K6YKy9VZt6dh16J-89" value="&quot;include&quot;" style="edgeLabel;html=1;align=center;verticalAlign=middle;resizable=0;points=[];" vertex="1" connectable="0" parent="CULK5K6YKy9VZt6dh16J-88">
          <mxGeometry x="-0.0592" y="-2" relative="1" as="geometry">
            <mxPoint as="offset" />
          </mxGeometry>
        </mxCell>
        <mxCell id="CULK5K6YKy9VZt6dh16J-90" style="rounded=0;orthogonalLoop=1;jettySize=auto;html=1;" edge="1" parent="1" source="CULK5K6YKy9VZt6dh16J-79" target="CULK5K6YKy9VZt6dh16J-85">
          <mxGeometry relative="1" as="geometry">
            <mxPoint x="1020" y="205" as="sourcePoint" />
            <mxPoint x="1056" y="205" as="targetPoint" />
          </mxGeometry>
        </mxCell>
        <mxCell id="CULK5K6YKy9VZt6dh16J-91" value="&quot;include&quot;" style="edgeLabel;html=1;align=center;verticalAlign=middle;resizable=0;points=[];" vertex="1" connectable="0" parent="CULK5K6YKy9VZt6dh16J-90">
          <mxGeometry x="-0.0592" y="-2" relative="1" as="geometry">
            <mxPoint as="offset" />
          </mxGeometry>
        </mxCell>
        <mxCell id="CULK5K6YKy9VZt6dh16J-98" style="rounded=0;orthogonalLoop=1;jettySize=auto;html=1;" edge="1" parent="1" source="CULK5K6YKy9VZt6dh16J-100" target="CULK5K6YKy9VZt6dh16J-79">
          <mxGeometry relative="1" as="geometry">
            <mxPoint x="1019" y="281" as="sourcePoint" />
            <mxPoint x="1101" y="290" as="targetPoint" />
          </mxGeometry>
        </mxCell>
        <mxCell id="CULK5K6YKy9VZt6dh16J-99" value="&quot;&quot;extend&quot;" style="edgeLabel;html=1;align=center;verticalAlign=middle;resizable=0;points=[];" vertex="1" connectable="0" parent="CULK5K6YKy9VZt6dh16J-98">
          <mxGeometry x="-0.0592" y="-2" relative="1" as="geometry">
            <mxPoint as="offset" />
          </mxGeometry>
        </mxCell>
        <mxCell id="CULK5K6YKy9VZt6dh16J-100" value="Открытие онлайн редактор проекта" style="ellipse;whiteSpace=wrap;html=1;" vertex="1" parent="1">
          <mxGeometry x="930" y="270" width="120" height="60" as="geometry" />
        </mxCell>
        <mxCell id="CULK5K6YKy9VZt6dh16J-103" value="Добавление, удаление и редактирование файла или директории" style="ellipse;whiteSpace=wrap;html=1;" vertex="1" parent="1">
          <mxGeometry x="1130" y="240" width="156" height="80" as="geometry" />
        </mxCell>
        <mxCell id="CULK5K6YKy9VZt6dh16J-104" style="rounded=0;orthogonalLoop=1;jettySize=auto;html=1;" edge="1" parent="1" source="CULK5K6YKy9VZt6dh16J-100" target="CULK5K6YKy9VZt6dh16J-103">
          <mxGeometry relative="1" as="geometry">
            <mxPoint x="1019" y="210" as="sourcePoint" />
            <mxPoint x="1101" y="219" as="targetPoint" />
          </mxGeometry>
        </mxCell>
        <mxCell id="CULK5K6YKy9VZt6dh16J-105" value="&quot;include&quot;" style="edgeLabel;html=1;align=center;verticalAlign=middle;resizable=0;points=[];" vertex="1" connectable="0" parent="CULK5K6YKy9VZt6dh16J-104">
          <mxGeometry x="-0.0592" y="-2" relative="1" as="geometry">
            <mxPoint as="offset" />
          </mxGeometry>
        </mxCell>
        <mxCell id="CULK5K6YKy9VZt6dh16J-106" value="Компилирование проекта" style="ellipse;whiteSpace=wrap;html=1;" vertex="1" parent="1">
          <mxGeometry x="1121" y="330" width="120" height="70" as="geometry" />
        </mxCell>
        <mxCell id="CULK5K6YKy9VZt6dh16J-107" style="rounded=0;orthogonalLoop=1;jettySize=auto;html=1;" edge="1" parent="1" source="CULK5K6YKy9VZt6dh16J-100" target="CULK5K6YKy9VZt6dh16J-106">
          <mxGeometry relative="1" as="geometry">
            <mxPoint x="1058" y="309" as="sourcePoint" />
            <mxPoint x="1142" y="299" as="targetPoint" />
          </mxGeometry>
        </mxCell>
        <mxCell id="CULK5K6YKy9VZt6dh16J-108" value="&quot;include&quot;" style="edgeLabel;html=1;align=center;verticalAlign=middle;resizable=0;points=[];" vertex="1" connectable="0" parent="CULK5K6YKy9VZt6dh16J-107">
          <mxGeometry x="-0.0592" y="-2" relative="1" as="geometry">
            <mxPoint as="offset" />
          </mxGeometry>
        </mxCell>
        <mxCell id="CULK5K6YKy9VZt6dh16J-111" value="Просмотр форума" style="ellipse;whiteSpace=wrap;html=1;" vertex="1" parent="1">
          <mxGeometry x="920" y="350" width="110" height="50" as="geometry" />
        </mxCell>
        <mxCell id="CULK5K6YKy9VZt6dh16J-112" style="rounded=0;orthogonalLoop=1;jettySize=auto;html=1;" edge="1" parent="1" source="CULK5K6YKy9VZt6dh16J-114" target="CULK5K6YKy9VZt6dh16J-111">
          <mxGeometry relative="1" as="geometry">
            <mxPoint x="984.290363845316" y="485.0104080375454" as="sourcePoint" />
          </mxGeometry>
        </mxCell>
        <mxCell id="CULK5K6YKy9VZt6dh16J-113" value="&quot;extend&quot;" style="edgeLabel;html=1;align=center;verticalAlign=middle;resizable=0;points=[];" vertex="1" connectable="0" parent="CULK5K6YKy9VZt6dh16J-112">
          <mxGeometry x="-0.0592" y="-2" relative="1" as="geometry">
            <mxPoint as="offset" />
          </mxGeometry>
        </mxCell>
        <mxCell id="CULK5K6YKy9VZt6dh16J-114" value="Фильтрация &lt;br&gt;форума" style="ellipse;whiteSpace=wrap;html=1;" vertex="1" parent="1">
          <mxGeometry x="944" y="455" width="106" height="40" as="geometry" />
        </mxCell>
        <mxCell id="CULK5K6YKy9VZt6dh16J-115" value="Добавление&lt;br&gt;вопроса" style="ellipse;whiteSpace=wrap;html=1;" vertex="1" parent="1">
          <mxGeometry x="1140" y="410" width="106" height="40" as="geometry" />
        </mxCell>
        <mxCell id="CULK5K6YKy9VZt6dh16J-116" value="Удаление вопроса" style="ellipse;whiteSpace=wrap;html=1;" vertex="1" parent="1">
          <mxGeometry x="1110" y="455" width="106" height="40" as="geometry" />
        </mxCell>
        <mxCell id="CULK5K6YKy9VZt6dh16J-117" value="Редактирование&lt;br&gt;вопроса" style="ellipse;whiteSpace=wrap;html=1;" vertex="1" parent="1">
          <mxGeometry x="1066" y="495" width="110" height="50" as="geometry" />
        </mxCell>
        <mxCell id="CULK5K6YKy9VZt6dh16J-118" style="rounded=0;orthogonalLoop=1;jettySize=auto;html=1;" edge="1" parent="1" source="CULK5K6YKy9VZt6dh16J-111" target="CULK5K6YKy9VZt6dh16J-115">
          <mxGeometry relative="1" as="geometry">
            <mxPoint x="1015" y="310" as="sourcePoint" />
            <mxPoint x="995" y="360" as="targetPoint" />
          </mxGeometry>
        </mxCell>
        <mxCell id="CULK5K6YKy9VZt6dh16J-119" value="&quot;include&quot;" style="edgeLabel;html=1;align=center;verticalAlign=middle;resizable=0;points=[];" vertex="1" connectable="0" parent="CULK5K6YKy9VZt6dh16J-118">
          <mxGeometry x="-0.0592" y="-2" relative="1" as="geometry">
            <mxPoint as="offset" />
          </mxGeometry>
        </mxCell>
        <mxCell id="CULK5K6YKy9VZt6dh16J-120" style="rounded=0;orthogonalLoop=1;jettySize=auto;html=1;" edge="1" parent="1" source="CULK5K6YKy9VZt6dh16J-111" target="CULK5K6YKy9VZt6dh16J-116">
          <mxGeometry relative="1" as="geometry">
            <mxPoint x="1024" y="367" as="sourcePoint" />
            <mxPoint x="1095" y="335" as="targetPoint" />
          </mxGeometry>
        </mxCell>
        <mxCell id="CULK5K6YKy9VZt6dh16J-121" value="&quot;include&quot;" style="edgeLabel;html=1;align=center;verticalAlign=middle;resizable=0;points=[];" vertex="1" connectable="0" parent="CULK5K6YKy9VZt6dh16J-120">
          <mxGeometry x="-0.0592" y="-2" relative="1" as="geometry">
            <mxPoint as="offset" />
          </mxGeometry>
        </mxCell>
        <mxCell id="CULK5K6YKy9VZt6dh16J-122" style="rounded=0;orthogonalLoop=1;jettySize=auto;html=1;" edge="1" parent="1" source="CULK5K6YKy9VZt6dh16J-111" target="CULK5K6YKy9VZt6dh16J-117">
          <mxGeometry relative="1" as="geometry">
            <mxPoint x="1040" y="385" as="sourcePoint" />
            <mxPoint x="1076" y="385" as="targetPoint" />
          </mxGeometry>
        </mxCell>
        <mxCell id="CULK5K6YKy9VZt6dh16J-123" value="&quot;include&quot;" style="edgeLabel;html=1;align=center;verticalAlign=middle;resizable=0;points=[];" vertex="1" connectable="0" parent="CULK5K6YKy9VZt6dh16J-122">
          <mxGeometry x="-0.0592" y="-2" relative="1" as="geometry">
            <mxPoint as="offset" />
          </mxGeometry>
        </mxCell>
        <mxCell id="CULK5K6YKy9VZt6dh16J-124" value="Фильтрация по категориям" style="ellipse;whiteSpace=wrap;html=1;" vertex="1" parent="1">
          <mxGeometry x="930" y="545" width="106" height="40" as="geometry" />
        </mxCell>
        <mxCell id="CULK5K6YKy9VZt6dh16J-125" value="Фильтрация по языка программирвоания" style="ellipse;whiteSpace=wrap;html=1;" vertex="1" parent="1">
          <mxGeometry x="1036" y="555" width="134" height="60" as="geometry" />
        </mxCell>
        <mxCell id="CULK5K6YKy9VZt6dh16J-126" style="rounded=0;orthogonalLoop=1;jettySize=auto;html=1;" edge="1" parent="1" source="CULK5K6YKy9VZt6dh16J-114" target="CULK5K6YKy9VZt6dh16J-125">
          <mxGeometry relative="1" as="geometry">
            <mxPoint x="991" y="562" as="sourcePoint" />
            <mxPoint x="1062" y="530" as="targetPoint" />
          </mxGeometry>
        </mxCell>
        <mxCell id="CULK5K6YKy9VZt6dh16J-127" value="&quot;include&quot;" style="edgeLabel;html=1;align=center;verticalAlign=middle;resizable=0;points=[];" vertex="1" connectable="0" parent="CULK5K6YKy9VZt6dh16J-126">
          <mxGeometry x="-0.0592" y="-2" relative="1" as="geometry">
            <mxPoint as="offset" />
          </mxGeometry>
        </mxCell>
        <mxCell id="CULK5K6YKy9VZt6dh16J-128" style="rounded=0;orthogonalLoop=1;jettySize=auto;html=1;" edge="1" parent="1" source="CULK5K6YKy9VZt6dh16J-114" target="CULK5K6YKy9VZt6dh16J-124">
          <mxGeometry relative="1" as="geometry">
            <mxPoint x="1014" y="467" as="sourcePoint" />
            <mxPoint x="1062" y="431" as="targetPoint" />
          </mxGeometry>
        </mxCell>
        <mxCell id="CULK5K6YKy9VZt6dh16J-129" value="&quot;include&quot;" style="edgeLabel;html=1;align=center;verticalAlign=middle;resizable=0;points=[];" vertex="1" connectable="0" parent="CULK5K6YKy9VZt6dh16J-128">
          <mxGeometry x="-0.0592" y="-2" relative="1" as="geometry">
            <mxPoint as="offset" />
          </mxGeometry>
        </mxCell>
        <mxCell id="CULK5K6YKy9VZt6dh16J-130" style="rounded=0;orthogonalLoop=1;jettySize=auto;html=1;" edge="1" parent="1" source="CULK5K6YKy9VZt6dh16J-78" target="CULK5K6YKy9VZt6dh16J-111">
          <mxGeometry relative="1" as="geometry">
            <mxPoint x="942" y="318" as="targetPoint" />
            <mxPoint x="870" y="327" as="sourcePoint" />
          </mxGeometry>
        </mxCell>
        <mxCell id="CULK5K6YKy9VZt6dh16J-138" value="Оценка курсов" style="ellipse;whiteSpace=wrap;html=1;" vertex="1" parent="1">
          <mxGeometry x="474" y="380" width="110" height="50" as="geometry" />
        </mxCell>
        <mxCell id="CULK5K6YKy9VZt6dh16J-139" style="rounded=0;orthogonalLoop=1;jettySize=auto;html=1;" edge="1" parent="1" source="CULK5K6YKy9VZt6dh16J-23" target="CULK5K6YKy9VZt6dh16J-138">
          <mxGeometry relative="1" as="geometry">
            <mxPoint x="403" y="343" as="sourcePoint" />
            <mxPoint x="493" y="357" as="targetPoint" />
          </mxGeometry>
        </mxCell>
        <mxCell id="CULK5K6YKy9VZt6dh16J-140" value="&quot;include&quot;" style="edgeLabel;html=1;align=center;verticalAlign=middle;resizable=0;points=[];" vertex="1" connectable="0" parent="CULK5K6YKy9VZt6dh16J-139">
          <mxGeometry x="-0.0592" y="-2" relative="1" as="geometry">
            <mxPoint as="offset" />
          </mxGeometry>
        </mxCell>
        <mxCell id="CULK5K6YKy9VZt6dh16J-141" value="Оценка и комментирование статей" style="ellipse;whiteSpace=wrap;html=1;" vertex="1" parent="1">
          <mxGeometry x="208" y="40" width="110" height="50" as="geometry" />
        </mxCell>
        <mxCell id="CULK5K6YKy9VZt6dh16J-143" style="rounded=0;orthogonalLoop=1;jettySize=auto;html=1;" edge="1" parent="1" source="CULK5K6YKy9VZt6dh16J-141" target="CULK5K6YKy9VZt6dh16J-2">
          <mxGeometry relative="1" as="geometry">
            <mxPoint x="375" y="80" as="sourcePoint" />
            <mxPoint x="355" y="130" as="targetPoint" />
          </mxGeometry>
        </mxCell>
        <mxCell id="CULK5K6YKy9VZt6dh16J-144" value="&quot;extend&quot;" style="edgeLabel;html=1;align=center;verticalAlign=middle;resizable=0;points=[];" vertex="1" connectable="0" parent="CULK5K6YKy9VZt6dh16J-143">
          <mxGeometry x="-0.0592" y="-2" relative="1" as="geometry">
            <mxPoint as="offset" />
          </mxGeometry>
        </mxCell>
        <mxCell id="CULK5K6YKy9VZt6dh16J-148" value="" style="rounded=0;whiteSpace=wrap;html=1;dashed=1;fillColor=none;" vertex="1" parent="1">
          <mxGeometry x="862" y="81" width="450" height="543" as="geometry" />
        </mxCell>
      </root>
    </mxGraphModel>
  </diagram>
</mxfile>
